<?xml version="1.0" encoding="UTF-8" standalone="no"?>
<!-- Created with Inkscape (http://www.inkscape.org/) -->

<svg
   width="80"
   height="80"
   viewBox="0 0 80 80"
   version="1.1"
   id="SVGRoot"
   sodipodi:docname="icon.svg"
   inkscape:version="1.2.2 (732a01da63, 2022-12-09)"
   xmlns:inkscape="http://www.inkscape.org/namespaces/inkscape"
   xmlns:sodipodi="http://sodipodi.sourceforge.net/DTD/sodipodi-0.dtd"
   xmlns="http://www.w3.org/2000/svg"
   xmlns:svg="http://www.w3.org/2000/svg"
   xmlns:rdf="http://www.w3.org/1999/02/22-rdf-syntax-ns#"
   xmlns:cc="http://creativecommons.org/ns#"
   xmlns:dc="http://purl.org/dc/elements/1.1/">
  <sodipodi:namedview
     id="namedview18"
     pagecolor="#154719"
     bordercolor="#000000"
     borderopacity="0.25"
     inkscape:showpageshadow="2"
     inkscape:pageopacity="0"
     inkscape:pagecheckerboard="0"
     inkscape:deskcolor="#d1d1d1"
     inkscape:document-units="px"
     showgrid="true"
     inkscape:zoom="3.684568"
     inkscape:cx="-26.597419"
     inkscape:cy="26.597419"
     inkscape:window-width="1366"
     inkscape:window-height="697"
     inkscape:window-x="-8"
     inkscape:window-y="-8"
     inkscape:window-maximized="1"
     inkscape:current-layer="g737">
    <inkscape:grid
       type="xygrid"
       id="grid24"
       originx="0"
       originy="0" />
  </sodipodi:namedview>
  <defs
     id="defs13" />
  <g
     inkscape:label="Layer 1"
     inkscape:groupmode="layer"
     id="layer1">
    <g
       id="g737"
       transform="matrix(0.51146538,0,0,0.58638787,-33.461585,-37.908431)">
      <path
         id="path122"
         style="fill:#cccccc"
         d="m 115.68555,72.820312 -0.98243,0.04102 c 0.28068,0.07127 0.56024,0.162733 0.83985,0.257813 0.0274,-0.0037 0.0546,-0.0081 0.082,-0.01172 0.0203,-0.09568 0.0404,-0.19139 0.0606,-0.28711 z M 75.8125,83.802734 c -0.0017,0.02234 -0.0066,0.04399 -0.0078,0.06641 -0.0037,0.06582 0.0203,0.02434 0.05664,-0.06641 -0.01625,-9e-5 -0.03258,9.3e-5 -0.04883,0 z" />
      <path
         style="fill:#cccccc;stroke-width:1.01821"
         d="m 87.469572,81.678153 c 2.976162,1.052393 5.429873,5.746612 12.563428,9.418835 7.13355,3.672223 21.08905,5.307931 30.91607,9.817942 3.012,1.38232 6.16539,2.83127 8.46014,5.22231 2.90349,3.02533 4.70613,7.03462 6.16233,10.96684 0.43155,1.16533 0.53467,2.42858 0.73112,3.65563 0.32154,2.00837 0.40185,4.04784 0.73113,6.05787 0.19479,1.18908 -0.0277,2.33508 0.73545,3.54592 0.14966,0.23747 0.4908,0.81186 0.91873,0.78597 0.82448,-0.0499 0.86529,-0.97629 1.51348,-1.71294 0.75856,-0.86209 0.93612,-1.42591 2.05464,-2.7234 1.76844,-2.0514 3.447,-4.25961 5.64009,-5.84898 0.97084,-0.70358 2.0477,-1.42127 3.23783,-1.56669 0.671,-0.082 1.60028,0.0605 2.24297,0.27007 0.72596,0.23669 1.34709,0.56799 1.83044,1.08773 0.84825,0.91212 1.0365,2.27048 1.67113,3.34228 0.28047,0.47367 0.52417,0.99712 0.94002,1.35779 0.64693,0.56107 1.61651,0.63011 2.29782,1.14892 0.37265,0.28376 0.93762,0.57607 0.94002,1.04446 0.002,0.3249 -0.38782,0.53207 -0.6446,0.73112 -0.30344,0.23521 -1.02655,0.52223 -1.02655,0.52223 l -2.40226,0.41778 c 0,0 -0.72567,-0.0232 -1.14257,0.15297 -0.24423,0.10321 -0.52312,0.52775 -0.65728,0.75645 -0.33654,0.57372 -0.26914,1.31368 0.0242,1.91063 0.46701,0.95032 1.59179,1.40423 2.29781,2.19337 0.61286,0.68501 1.30234,1.35145 1.67114,2.19337 0.72345,1.65151 0.99695,3.52464 0.94002,5.32676 -0.0746,2.36319 -0.54532,4.81432 -1.67114,6.89345 -1.91163,3.53031 -5.04801,6.3534 -8.25125,8.77347 -4.39151,3.31784 -9.63482,5.35291 -14.66134,7.59514 -2.16302,0.96487 -6.64692,2.51106 -6.64692,2.51106 l -9.01026,3.10189 -6.94233,1.92022 c 0,0 -5.86432,2.04629 -8.56714,3.54502 -2.22247,1.23237 -4.3292,2.71545 -6.20378,4.43128 -2.00909,1.83894 -3.81098,3.93477 -5.31754,6.20378 -1.03529,1.55922 -1.06643,3.83212 -2.51105,5.02211 -0.709958,0.58482 -1.750488,0.88375 -2.658767,0.73855 -0.525894,-0.0841 -0.993821,-0.47269 -1.329382,-0.88625 -0.501187,-0.61768 -0.958539,-1.42349 -0.886257,-2.21564 0.243295,-2.66631 2.484883,-4.8114 4.283568,-6.79462 2.805338,-3.09314 6.253578,-5.6397 9.896518,-7.68088 3.76547,-2.10983 12.11216,-4.57899 12.11216,-4.57899 l 15.95259,-5.31753 9.30568,-3.98815 c 0,0 5.9696,-2.86246 8.56713,-4.8744 1.78931,-1.38592 4.7267,-4.87441 4.7267,-4.87441 0,0 2.32406,-2.62066 3.17574,-4.13585 0.40099,-0.71338 0.6751,-1.49887 0.88626,-2.2895 0.33422,-1.25134 0.5554,-2.70055 0.59084,-3.84044 0.0303,-0.97498 0,-2.55128 0,-2.55128 0,0 -0.1767,-1.57606 -0.36928,-2.24926 -0.29167,-1.0197 -1.18167,-2.9542 -1.18167,-2.9542 0,0 -1.30469,-1.63817 -1.55094,-2.28948 -0.27917,-0.73831 0.22156,-1.55095 0.22156,-1.55095 l 1.70188,-1.04043 1.99085,-0.62592 c 0,0 1.22145,0.0796 1.32938,-0.73393 -2.22201,-1.19142 -2.74368,-4.39504 -4.16684,-5.09926 -0.37222,-0.45273 -1.80673,-0.482 -2.43886,-0.33269 -1.72534,0.60598 -2.43881,1.88993 -3.88166,3.25361 -2.70124,2.54893 -3.81862,6.70579 -6.94233,8.71484 -0.68296,0.43925 -1.57535,0.78694 -2.36334,0.59083 -1.2856,-0.31995 -2.26911,-1.52483 -2.95419,-2.65876 -1.54997,-2.56549 -1.13325,-5.91974 -2.21563,-8.71484 -1.20903,-3.12216 -2.71993,-6.18254 -4.7267,-8.86255 -2.06601,-2.75912 -4.61278,-5.18999 -7.38546,-7.23776 -2.65831,-1.9633 -5.71916,-3.33135 -8.71485,-4.7267 -2.92571,-1.36276 -9.01026,-3.545013 -9.01026,-3.545013 0,0 -8.20929,-2.569115 -11.07818,-3.69273 -2.868894,-1.123615 -4.002931,-1.473898 -6.203793,-2.806476 -2.200862,-1.332578 -6.794623,-5.317531 -6.794623,-5.317531 0,0 -2.855055,-2.166761 -3.69273,-3.69273 -0.218439,-0.397924 -0.479426,-0.914413 -0.295419,-1.329383 0.247979,-0.559239 0.260145,-0.934347 3.236307,0.118046 z"
         id="path295"
         sodipodi:nodetypes="zzssssasasssssssssaaccssssssssscccsssssassscccacssscscscccccccsasssssczzcssz" />
      <path
         style="fill:#cccccc"
         d="m 113.80561,187.64506 c 1.00904,-0.32242 1.04651,-2.8325 1.66828,-4.20695 1.57769,-3.48759 3.0754,-7.05828 5.22244,-10.22728 1.4416,-2.12778 3.29926,-3.9469 5.07736,-5.80271 3.97525,-4.14899 8.62465,-7.63115 12.47583,-11.89555 2.3792,-2.63448 4.60648,-5.42919 6.52804,-8.41392 0.60554,-0.94058 1.23557,-1.60778 1.56206,-2.97024 0.32648,-1.36247 1.07978,-3.78752 0.0337,-5.15355 -0.57085,-0.74544 -1.65768,-1.02292 -2.46615,-0.50775 -0.80848,0.51517 -0.70427,1.85078 -1.02792,2.78634 -0.30394,0.87856 -0.13757,0.60563 -0.85796,2.65371 -0.72039,2.04808 -3.5407,6.39397 -5.36751,8.84913 -1.82681,2.45516 -3.55409,3.98733 -5.3675,5.94777 l -5.36751,5.80271 c -1.65141,1.78531 -2.9076,3.37958 -4.35203,5.07737 -1.84553,2.16923 -3.75508,4.2869 -5.51257,6.52805 -0.81172,1.03511 -1.68608,2.19386 -2.32108,3.19149 -0.635,0.99763 -1.10522,1.79337 -1.52322,2.75628 -0.40493,0.93281 -0.82122,1.86462 -0.94294,2.90136 -0.0959,0.81644 -0.0811,1.4737 0.36267,2.10348 0.44382,0.62978 1.16698,0.90269 2.17602,0.58026 z"
         id="path728"
         sodipodi:nodetypes="zaassszssaczsssazaszzz" />
      <path
         style="fill:#cccccc"
         d="m 149.85493,127.65957 c 0.88763,0.25611 1.48684,-1.16573 2.03095,-1.88588 1.7972,-2.37866 2.39537,-5.34202 3.91683,-7.83365 1.40628,-2.303 2.88479,-4.61437 4.78723,-6.52805 2.8024,-2.81894 6.1104,-5.15894 9.57447,-7.10831 3.91281,-2.20189 8.27329,-3.49714 12.47582,-5.077374 3.87908,-1.458606 7.98684,-2.327032 11.75049,-4.061896 3.2085,-1.478967 6.32292,-3.234428 9.13926,-5.367505 2.72626,-2.064853 5.3695,-4.279995 7.50103,-6.954449 0.52721,-0.661491 1.76005,-1.69329 1.20303,-2.329883 -0.33326,-0.380867 -0.95913,0.342644 -1.39406,0.601395 -0.9875,0.587486 -2.15905,1.753304 -2.71032,2.130001 -2.6709,2.311084 -5.57363,4.215512 -8.53989,6.117733 l -2.65522,1.459477 c -3.53953,2.088046 -8.22981,2.938927 -11.82817,3.908028 -2.30419,0.644095 -4.67633,1.037863 -6.96325,1.740812 -2.95385,0.907948 -5.95657,1.776972 -8.70406,3.19149 -3.12429,1.608511 -6.11275,3.574241 -8.70406,5.947771 -1.79889,1.64771 -3.23272,3.66655 -4.64217,5.65764 -1.07808,1.52298 -2.03221,3.13608 -2.90135,4.78724 -0.76614,1.45549 -2.03095,4.4971 -2.03095,4.4971 0,0 -0.94323,1.91165 -1.30561,2.90135 -0.24335,0.66462 -0.57365,1.3036 -0.58027,2.03095 -0.007,0.72735 -0.14099,1.9679 0.58027,2.17601 z"
         id="path353"
         sodipodi:nodetypes="sassssssssaccccssssscsss" />
      <ellipse
         style="fill:#cccccc;stroke-width:0.741179"
         id="path519"
         cx="161.31528"
         cy="125.55608"
         rx="1.5957446"
         ry="1.5232108" />
    </g>
  </g>
  <metadata
     id="metadata117">
    <rdf:RDF>
      <cc:Work
         rdf:about="">
        <dc:creator>
          <cc:Agent>
            <dc:title>Moses Kisya</dc:title>
          </cc:Agent>
        </dc:creator>
        <dc:publisher>
          <cc:Agent>
            <dc:title>Kishea Technologies</dc:title>
          </cc:Agent>
        </dc:publisher>
        <dc:language>English</dc:language>
      </cc:Work>
    </rdf:RDF>
  </metadata>
</svg>
